<svg xmlns="http://www.w3.org/2000/svg" viewBox="0 0 65 65" fill="#1793D1">
  <path d="M32.253.432s-.7 1.745-1.637 4.186c-.44 1.144-1.637 4.186-1.637 4.186l-3.47 8.373s-.975 2.405-1.307 3.549c-.332 1.144-.975 2.405-.975 2.405s-1.307 3.549-1.637 4.693c-.332 1.144-1.307 3.549-1.307 3.549s-1.307 3.549-1.637 4.693c-.332 1.144-1.307 3.549-1.307 3.549s-1.307 3.549-1.637 4.693c-.332 1.144-1.307 3.549-1.307 3.549s-1.307 3.549-1.637 4.693c-.332 1.144-1.307 3.549-1.307 3.549s-.975 2.405-1.307 3.549c-.332 1.144-.975 2.405-.975 2.405l-1.637 4.186c-.44 1.144-1.637 4.186-1.637 4.186h64.506s-.7-1.745-1.637-4.186c-.44-1.144-1.637-4.186-1.637-4.186l-3.47-8.373s-.975-2.405-1.307-3.549c-.332-1.144-.975-2.405-.975-2.405s-1.307-3.549-1.637-4.693c-.332-1.144-1.307-3.549-1.307-3.549s-1.307-3.549-1.637-4.693c-.332-1.144-1.307-3.549-1.307-3.549s-1.307-3.549-1.637-4.693c-.332-1.144-1.307-3.549-1.307-3.549s-1.307-3.549-1.637-4.693c-.332-1.144-1.307-3.549-1.307-3.549s-.975-2.405-1.307-3.549c-.332-1.144-.975-2.405-.975-2.405l-1.637-4.186c-.44-1.144-1.637-4.186-1.637-4.186z"/>
</svg>
