<svg xmlns="http://www.w3.org/2000/svg" viewBox="0 0 24 24">
  <path fill="#EA4335" d="M24 5.457v13.909c0 .904-.732 1.636-1.636 1.636h-3.819V11.73L12 16.64l-6.545-4.91v9.273H1.636A1.636 1.636 0 0 1 0 19.366V5.457c0-2.023 2.309-3.178 3.927-1.964L5.455 4.64 12 9.548l6.545-4.91 1.528-1.145C21.69 2.28 24 3.434 24 5.457z"/>
  <path fill="#FBBC04" d="M0 5.457c0-1.105.595-2.126 1.555-2.666L12 9.548l10.445-6.757A3.272 3.272 0 0 1 24 5.457v.727L12 13.091 0 6.184z"/>
  <path fill="#34A853" d="M18.545 21.002h3.819c.904 0 1.636-.732 1.636-1.636V6.184L12 13.091z"/>
  <path fill="#C5221F" d="M0 6.184v13.182c0 .904.732 1.636 1.636 1.636h3.819V11.73z"/>
</svg>
